<?xml version="1.0" encoding="UTF-8"?>
<svg version="1.1" xmlns="http://www.w3.org/2000/svg" width="512" height="512">
<path d="M0 0 C1.56983579 -0.00462229 3.13966723 -0.01098403 4.70948982 -0.01890898 C8.97516917 -0.03544332 13.2404857 -0.02742935 17.5061655 -0.0149641 C22.12520741 -0.00585003 26.74419034 -0.01991461 31.36322021 -0.03088379 C40.39291324 -0.04860623 49.42247274 -0.04485712 58.45217085 -0.03323323 C65.79529376 -0.02417437 73.13837944 -0.02298548 80.48150635 -0.02732849 C81.52935621 -0.02794142 82.57720608 -0.02855436 83.65680897 -0.02918586 C85.78595274 -0.03046485 87.91509649 -0.03176171 90.04424024 -0.03307623 C109.97704435 -0.04446364 129.90977471 -0.03139722 149.84256673 -0.00987476 C166.92030927 0.00799453 183.99794302 0.00488991 201.07568359 -0.0135498 C220.94051082 -0.03498905 240.80527352 -0.04336518 260.6701107 -0.03110075 C262.79112116 -0.02982665 264.91213162 -0.02856916 267.03314209 -0.02732849 C268.59822815 -0.02640284 268.59822815 -0.02640284 270.1949321 -0.02545848 C277.52338286 -0.02201474 284.85179244 -0.02781283 292.18023682 -0.0372467 C301.11955465 -0.04850206 310.05873211 -0.0453526 318.998034 -0.02412373 C323.55300522 -0.01366073 328.10774297 -0.00940973 332.6627121 -0.02272034 C336.84256183 -0.03474941 341.02196447 -0.02791109 345.20177436 -0.00681013 C346.70358525 -0.00238813 348.20543491 -0.00450951 349.70722032 -0.01431328 C363.06068725 -0.09471266 376.304166 1.89021704 388.19482422 8.32043457 C388.85748291 8.66662842 389.5201416 9.01282227 390.20288086 9.36950684 C395.52005024 12.22066703 400.28762881 15.43747409 404.75732422 19.50793457 C405.51400391 20.18469238 406.27068359 20.8614502 407.05029297 21.55871582 C420.42788863 34.17443836 429.58362568 52.6429638 430.13764095 71.14319324 C430.15524167 73.59274004 430.15677724 76.04243791 430.14500427 78.49201965 C430.1491866 79.86524885 430.154669 81.23847459 430.16132408 82.61169404 C430.17567992 86.35241683 430.17156517 90.09291746 430.16415727 93.8336519 C430.15940322 97.88082106 430.17195518 101.92794369 430.18217468 105.97509766 C430.19932485 113.89137868 430.2002105 121.80758019 430.19496178 129.72387496 C430.19091149 136.16225545 430.19237382 142.60061255 430.19771004 149.03899193 C430.19845846 149.9572305 430.19920688 150.87546907 430.19997798 151.82153305 C430.20150955 153.68726968 430.2030479 155.5530063 430.20459295 157.41874292 C430.21830452 174.89500987 430.21288994 192.37123199 430.20140774 209.8474979 C430.19147857 225.81219975 430.20441295 241.77678564 430.22834193 257.7414696 C430.25276432 274.15988415 430.26233298 290.57824476 430.2556892 306.9966771 C430.25220372 316.20399389 430.25438449 325.41122156 430.27194023 334.61852455 C430.2867016 342.45710553 430.28724652 350.29553463 430.26986932 358.13411275 C430.26138888 362.12795004 430.25913669 366.1215165 430.27452087 370.11533928 C430.28846727 373.78150939 430.28347916 377.44717919 430.26428164 381.11332109 C430.25880364 383.04622626 430.27270973 384.97915757 430.28763574 386.91201288 C430.13222275 405.63633458 423.33411202 422.60727437 410.75732422 436.50793457 C410.09216797 437.26590332 409.42701172 438.02387207 408.74169922 438.80480957 C396.97971657 451.43805019 379.81340248 460.71537327 362.42766833 461.69567943 C358.34982633 461.77162699 354.27618479 461.78452426 350.19784546 461.77536011 C348.61684281 461.77910043 347.03584201 461.78370347 345.45484412 461.78909075 C341.12591177 461.80128915 336.79705688 461.80106402 332.46811128 461.798702 C327.79308022 461.79829303 323.11807374 461.80934071 318.4430542 461.81881714 C309.28911658 461.83541123 300.13520472 461.84092598 290.98125331 461.84204189 C283.53737057 461.84299321 276.0934963 461.84710768 268.64961624 461.85344315 C247.52915931 461.87105192 226.40872268 461.88028269 205.28825836 461.8787822 C203.58129313 461.87866233 203.58129313 461.87866233 201.83984375 461.87854004 C200.70047185 461.87845828 199.56109995 461.87837652 198.38720162 461.87829228 C179.92947262 461.87747969 161.47182529 461.89661158 143.01411991 461.92481677 C124.04649859 461.95357163 105.07891707 461.9673556 86.11127341 461.96562922 C75.46862121 461.96496617 64.82605461 461.9704209 54.18342209 461.99198532 C45.12058551 462.01023145 36.05787331 462.01451636 26.99502628 462.00096647 C22.3754105 461.99445389 17.75603311 461.99425751 13.13644028 462.01167297 C8.89840074 462.02748495 4.66078701 462.02445797 0.42275734 462.00710471 C-1.10145849 462.00405256 -2.62570675 462.00759901 -4.1498843 462.01882486 C-24.33411553 462.15750935 -42.1051206 456.20381783 -57.24267578 442.50793457 C-58.00064453 441.84277832 -58.75861328 441.17762207 -59.53955078 440.49230957 C-72.07958264 428.8171075 -81.34873324 411.76893137 -82.43042064 394.51285529 C-82.50574817 390.96877118 -82.51882027 387.42949851 -82.51010132 383.88461304 C-82.51384306 382.51397487 -82.51844666 381.14333884 -82.52383196 379.77270615 C-82.53601297 376.02525069 -82.53580731 372.27788483 -82.53344321 368.5304141 C-82.53303379 364.48115395 -82.54408617 360.43192204 -82.55355835 356.38267517 C-82.570143 348.45597379 -82.57566677 340.52930217 -82.57678311 332.60258488 C-82.57773489 326.15555528 -82.58185172 319.70853545 -82.58818436 313.26150894 C-82.60579076 294.9632653 -82.6150243 276.66504508 -82.61352341 258.3667929 C-82.6134435 257.38115286 -82.61336358 256.39551281 -82.61328125 255.38000488 C-82.61319949 254.39315433 -82.61311773 253.40630379 -82.61303349 252.38954867 C-82.61222102 236.40526061 -82.63135037 220.42106686 -82.65955798 204.43680607 C-82.6883255 188.00493168 -82.70209611 171.57310324 -82.70037043 155.14120305 C-82.69970781 145.92377495 -82.70514382 136.70644572 -82.72672653 127.48904037 C-82.74498941 119.63941506 -82.74924399 111.78993341 -82.73570769 103.94029598 C-82.72920336 99.94039825 -82.72896817 95.94077572 -82.74641418 91.94090462 C-82.76226368 88.26907245 -82.75916213 84.59773095 -82.74184592 80.92590989 C-82.73737542 78.98987249 -82.75233968 77.05381912 -82.76832521 75.11784256 C-82.67492627 63.09175144 -80.04487275 51.41166269 -74.18017578 40.82043457 C-73.79659912 40.11475342 -73.41302246 39.40907227 -73.01782227 38.68200684 C-69.03348005 31.66098852 -64.09807958 26.020379 -58.24267578 20.50793457 C-57.46408203 19.77187988 -56.68548828 19.0358252 -55.88330078 18.27746582 C-51.19148589 14.20755257 -46.09940745 11.12330935 -40.61767578 8.25793457 C-40.02768799 7.94050293 -39.4377002 7.62307129 -38.82983398 7.29602051 C-26.61851865 1.25153859 -13.41929852 -0.08760223 0 0 Z M-51.19970703 39.62512207 C-61.45553893 51.82486982 -64.54878222 65.30822884 -64.51010132 80.79667664 C-64.51384204 82.14312837 -64.51844524 83.48957795 -64.52383196 84.83602411 C-64.5360254 88.52119109 -64.53580583 92.20626704 -64.53344321 95.89144957 C-64.53303411 99.87184069 -64.54408311 103.85220298 -64.55355835 107.83258057 C-64.57014962 115.62573044 -64.57566706 123.41885006 -64.57678311 131.21201613 C-64.57773454 137.54943777 -64.5818496 143.88684946 -64.58818436 150.22426796 C-64.60579223 168.206526 -64.61502402 186.18876019 -64.61352341 204.17102691 C-64.6134435 205.13983583 -64.61336358 206.10864475 -64.61328125 207.10681152 C-64.61319949 208.07680851 -64.61311773 209.04680549 -64.61303349 210.04619632 C-64.61222088 225.76030567 -64.63135331 241.4743191 -64.65955798 257.18840071 C-64.68831426 273.3377308 -64.70209674 289.48701415 -64.70037043 305.63637048 C-64.69970744 314.69725459 -64.70515967 323.75803816 -64.72672653 332.81889915 C-64.74497454 340.5346587 -64.74925608 348.25027214 -64.73570769 355.96604397 C-64.72919603 359.89885487 -64.72899507 363.83138576 -64.74641418 367.76416969 C-64.76223068 371.37240917 -64.75919507 374.98014864 -64.74184592 378.58837656 C-64.73736176 380.49512146 -64.75236587 382.40188241 -64.76832521 384.3085658 C-64.63580132 401.0227693 -58.56445764 414.94661513 -47.00830078 426.80871582 C-33.43875492 440.05243925 -18.21656537 443.97706206 0.34298706 443.89561462 C1.90239409 443.8997939 3.46179808 443.90527466 5.02119648 443.91193444 C9.28110187 443.92632995 13.5408128 443.92216286 17.80072856 443.91476762 C22.40479878 443.9100236 27.00882769 443.9225567 31.61288452 443.93278503 C40.62284815 443.94995423 49.63274197 443.95081694 58.6427177 443.94557213 C65.96834288 443.94152568 73.29394748 443.94297962 80.61957169 443.94832039 C81.66341445 443.94906881 82.70725721 443.94981723 83.78273157 443.95058833 C85.90350619 443.95211986 88.02428081 443.95365821 90.14505543 443.9552033 C110.01955042 443.96892155 129.89400602 443.9634954 149.7685001 443.95201809 C167.93646349 443.9420865 186.10432502 443.95502632 204.27227269 443.97895228 C222.9438892 444.00335559 241.61545829 444.01294811 260.28709042 444.00629956 C270.76308792 444.00281007 281.23900711 444.00502156 291.71499252 444.02255058 C300.63291789 444.03728794 309.55070978 444.03788793 318.46863256 444.02047967 C323.01510135 444.01197995 327.56133186 444.00979493 332.10778809 444.02513123 C336.27657106 444.03901901 340.44491254 444.03416303 344.61367024 444.01489199 C346.11490744 444.01114416 347.61618035 444.01401855 349.11738561 444.02450364 C367.23414189 444.14195681 382.05665695 438.93967853 395.05810547 426.27355957 C407.65690172 413.36480741 412.2319046 398.66391525 412.14500427 380.85842896 C412.14918553 379.50938614 412.15466737 378.16034685 412.16132408 376.81131399 C412.17569368 373.13287897 412.1715608 369.45466963 412.16415727 365.77622271 C412.15940672 361.79792244 412.17195207 357.81966968 412.18217468 353.84138489 C412.19933124 346.05865508 412.20020923 338.27600611 412.19496178 330.49326231 C412.19091294 324.16448971 412.1923721 317.83574092 412.19771004 311.50696945 C412.19845846 310.60467011 412.19920688 309.70237077 412.19997798 308.77272903 C412.20150953 306.93944141 412.20304788 305.10615379 412.20459295 303.27286617 C412.21830665 286.09806036 412.21288828 268.92330015 412.20140774 251.74849539 C412.1914768 236.05397219 412.20441563 220.35956691 412.22834193 204.66506191 C412.25275476 188.52919156 412.26233542 172.39337609 412.2556892 156.25748765 C412.2522018 147.20671495 412.25439734 138.15603289 412.27194023 129.1052742 C412.28668955 121.40055885 412.28726208 113.69599799 412.26986932 105.99128558 C412.26137931 102.06453517 412.25916044 98.13806044 412.27452087 94.21132469 C412.28843819 90.60874705 412.28351573 87.00667941 412.26428164 83.40413074 C412.25878688 81.50051819 412.27273421 79.59687921 412.28763574 77.69331706 C412.15049501 61.50953647 406.22150471 47.48732237 395.09716797 35.78918457 C381.0241413 22.06857092 365.5968163 18.19431174 346.47463989 18.24723816 C344.92378521 18.24421453 343.37293202 18.24032399 341.82208145 18.23564559 C337.57663472 18.22538411 333.33127262 18.22754269 329.08581901 18.23182619 C324.50084767 18.23429676 319.91589652 18.22527513 315.33093262 18.2177887 C306.35479924 18.205049 297.37869578 18.20324709 288.40255488 18.20558896 C281.10547261 18.20737306 273.8083994 18.2056205 266.51131821 18.20136452 C265.47217774 18.20076933 264.43303728 18.20017414 263.36240771 18.19956091 C261.25129256 18.19834914 259.14017741 18.19713501 257.02906226 18.19591854 C237.23762416 18.18504585 217.4462031 18.18720424 197.65476404 18.19330338 C179.55647187 18.19847254 161.45823352 18.18721664 143.35995199 18.16820516 C124.76751482 18.14882462 106.17510312 18.14057113 87.58265579 18.14432842 C77.148064 18.1462401 66.71351802 18.14375606 56.27893448 18.12961388 C47.39605835 18.11769638 38.51325625 18.11629937 29.6303791 18.12840404 C25.10040962 18.13429005 20.57057551 18.13539982 16.04061508 18.12340164 C11.88919657 18.11253407 7.7380263 18.11565655 3.58661936 18.12966333 C2.08939448 18.13230784 0.59215009 18.12995146 -0.90505563 18.12192746 C-21.30875251 18.02021674 -37.2586355 24.54316444 -51.19970703 39.62512207 Z " fill="#000000" transform="translate(82.24267578125,50.4920654296875)"/>
<path d="M0 0 C5.07669258 4.06135406 8.94223194 9.82669583 11 16 C11.11979145 17.95566503 11.17528496 19.91570766 11.1875 21.875 C11.20167969 22.90367187 11.21585938 23.93234375 11.23046875 24.9921875 C10.99581369 28.05463488 10.29184572 30.23248861 9 33 C9.54785156 33.07476562 10.09570312 33.14953125 10.66015625 33.2265625 C28.03498602 36.10824158 43.42879924 45.15423984 57 56 C57.78246094 56.61488281 58.56492187 57.22976563 59.37109375 57.86328125 C80.01630582 75.04922427 92.74672137 101.66393488 96 128 C96.03756782 129.66624321 96.05383754 131.3342031 96 133 C96.94875 132.896875 97.8975 132.79375 98.875 132.6875 C104.91712112 132.71201165 110.36680362 135.73038304 114.8671875 139.609375 C120.68936481 145.92397527 122.64203296 152.68741032 122.3359375 161.19921875 C121.33369611 169.55511497 117.92583035 174.78205429 111.70703125 180.30859375 C104.94687599 184.53247142 98.07894174 185.44171799 90.24658203 185.38095093 C89.30602526 185.3856309 88.36546848 185.39031087 87.39640999 185.39513266 C84.26673106 185.40703192 81.13749414 185.39764522 78.0078125 185.38818359 C75.75510402 185.39225154 73.50239754 185.39759467 71.24969482 185.40411377 C65.14646239 185.41776654 59.04338244 185.41249705 52.9401474 185.40297651 C46.54619442 185.39536941 40.15225429 185.40242845 33.75830078 185.40713501 C22.33451332 185.41293864 10.91081015 185.40362874 -0.51296306 185.388357 C-10.85828569 185.37495484 -21.20350731 185.37728325 -31.54882812 185.39111328 C-43.57979157 185.40718935 -55.61067878 185.41313243 -67.64165688 185.40427649 C-74.00394744 185.39960481 -80.36616852 185.39896132 -86.72845459 185.40888596 C-92.71048644 185.41756598 -98.69232795 185.41151454 -104.67433929 185.39420319 C-106.8668664 185.39024392 -109.05940958 185.39136277 -111.25193024 185.39799118 C-114.25036215 185.40621874 -117.24818844 185.39587017 -120.24658203 185.38095093 C-121.10914549 185.38764309 -121.97170895 185.39433526 -122.86041069 185.40123022 C-132.18083947 185.31160332 -139.28484526 182.77518321 -146.046875 176.296875 C-151.17174051 170.27003316 -152.7061245 163.46978083 -152.38671875 155.671875 C-151.38458688 148.74805484 -148.03179379 142.81302014 -143 138 C-137.40281827 134.40181174 -132.67872852 132.27405125 -126 133 C-125.97421875 132.30777344 -125.9484375 131.61554688 -125.921875 130.90234375 C-124.53507488 106.98004167 -114.10600428 86.13344729 -99 68 C-98.28070313 67.07767578 -98.28070313 67.07767578 -97.546875 66.13671875 C-84.66842755 50.03865944 -62.08273484 37.29467853 -42 33 C-41.01 33 -40.02 33 -39 33 C-39.32097656 32.29230469 -39.64195312 31.58460938 -39.97265625 30.85546875 C-42.36209877 24.21409048 -41.90545798 17.08537718 -39 10.6875 C-35.16465799 3.96754865 -29.59317345 -1.2286958 -22.125 -3.5625 C-14.05854384 -5.22324097 -7.21047902 -3.92713589 0 0 Z M-19.6875 15.5625 C-22.24071817 17.90511298 -22.24071817 17.90511298 -23.125 21.4375 C-23.32041984 25.11161091 -23.32041984 25.11161091 -20.9375 27.9375 C-18.16764391 30.17147653 -18.16764391 30.17147653 -15 30.625 C-10.88710733 29.76814736 -9.40313068 28.42264067 -7 25 C-6.6690684 21.39969811 -6.6690684 21.39969811 -8 18 C-10.18498756 15.46808501 -10.18498756 15.46808501 -13 14 C-16.9417798 13.6649197 -16.9417798 13.6649197 -19.6875 15.5625 Z M-76 71 C-76.67417969 71.52980469 -77.34835938 72.05960938 -78.04296875 72.60546875 C-94.59162945 85.9831286 -105.13507413 108.19159103 -108 129 C-108 130.32 -108 131.64 -108 133 C-46.62 133 14.76 133 78 133 C76.50161617 121.41354328 76.50161617 121.41354328 73.375 110.5 C73.11412598 109.79061279 72.85325195 109.08122559 72.58447266 108.3503418 C63.57135617 84.77858983 45.80202606 66.38788001 22.94726562 55.8359375 C-10.59736701 41.43563382 -48.36039491 47.17933862 -76 71 Z M-134 156 C-134 159.62761169 -133.79195782 161.92005751 -131.625 164.875 C-127.52970306 167.71020558 -122.92686423 167.14523886 -118.16897583 167.14044189 C-117.25522466 167.14341302 -116.34147348 167.14638414 -115.40003288 167.1494453 C-112.32543592 167.15814582 -109.25087784 167.15964168 -106.17626953 167.16113281 C-103.97707028 167.16575998 -101.77787183 167.1707845 -99.57867432 167.17617798 C-93.5952363 167.1893126 -87.6118095 167.19574885 -81.62835932 167.20018864 C-77.89266845 167.20311727 -74.15698067 167.20722165 -70.42129135 167.21169281 C-58.74037429 167.22536971 -47.05946367 167.23505173 -35.3785392 167.2388947 C-34.03409775 167.23933817 -32.6896563 167.23978473 -31.34521484 167.24023438 C-30.67832519 167.2404558 -30.01143554 167.24067723 -29.32433711 167.24090537 C-18.51584229 167.24485427 -7.70741485 167.26231149 3.10105394 167.2855939 C14.19676538 167.30930226 25.29244876 167.32151146 36.38818657 167.32293582 C42.61855015 167.32398555 48.84881868 167.32992925 55.07915878 167.34775543 C60.93796271 167.36419234 66.79659968 167.36641293 72.6554184 167.35761642 C74.80770183 167.35684373 76.95999409 167.36121914 79.1122551 167.37107468 C82.04670696 167.38372573 84.98056137 167.3779546 87.91500854 167.36749268 C88.7699704 167.37554908 89.62493225 167.38360548 90.50580204 167.39190602 C95.15601734 167.35303648 98.24088938 167.04160763 102 164 C104.34522935 161.11487022 104.34522935 161.11487022 103.875 157.5 C103.30537944 154.08772503 103.30537944 154.08772503 101.51425838 152.30590057 C97.7032935 150.32649334 94.13217503 150.57971526 89.89686584 150.60559082 C88.96592604 150.59949972 88.03498623 150.59340861 87.07583612 150.58713293 C83.94895314 150.57045209 80.82247511 150.57528603 77.69555664 150.58007812 C75.45679805 150.57274078 73.21804324 150.56415554 70.97929382 150.55441284 C64.89257886 150.53215362 58.80599909 150.52926835 52.71924901 150.53116035 C47.64198169 150.53127985 42.56474323 150.52272451 37.48748392 150.51438284 C24.82675495 150.49403179 12.16611015 150.49300453 -0.49462295 150.50018996 C-11.49064812 150.50576614 -22.48644035 150.48493715 -33.48241108 150.45182949 C-44.77253124 150.41809994 -56.06254296 150.40339795 -67.35272509 150.40754652 C-73.69155479 150.40961752 -80.03015251 150.4040804 -86.36894035 150.37965393 C-92.32882359 150.35744708 -98.28822086 150.35921443 -104.248106 150.37958145 C-106.43747838 150.38300216 -108.62688309 150.37785709 -110.8162117 150.36359787 C-113.80134047 150.34549465 -116.78480496 150.35808843 -119.7698822 150.37854004 C-121.07464749 150.35976327 -121.07464749 150.35976327 -122.40577167 150.34060717 C-127.91478072 150.42172916 -130.61304741 151.26644429 -134 156 Z " fill="#000000" transform="translate(271,268)"/>
<path d="M0 0 C3.08574317 3.02563129 5.50390278 6.48238354 8 10 C8.43441406 10.60827637 8.86882812 11.21655273 9.31640625 11.84326172 C11.81511378 15.34510637 14.29250007 18.86129872 16.7578125 22.38671875 C20.14862426 27.2273159 23.59915327 32.02362671 27.0625 36.8125 C27.61059326 37.57111328 28.15868652 38.32972656 28.72338867 39.11132812 C31.63883545 43.15317907 31.63883545 43.15317907 34.66967773 47.1081543 C36 49 36 49 36 51 C36.66 51 37.32 51 38 51 C38.33064453 49.98292969 38.33064453 49.98292969 38.66796875 48.9453125 C40.38823227 45.14156265 42.75447128 42.15374964 45.3125 38.875 C50.0027683 32.75757055 54.44108049 26.51633221 58.75 20.125 C72.47414728 -0.18080452 72.47414728 -0.18080452 77.3125 -1.75 C81.23424482 -2.11481347 83.73168948 -1.0418265 86.75 1.4375 C88.98120162 4.22650203 89.12709757 6.88042432 89.14044189 10.30659485 C89.14615204 11.18553406 89.15186218 12.06447327 89.15774536 12.970047 C89.15942215 14.41247017 89.15942215 14.41247017 89.16113281 15.8840332 C89.16858017 17.40642105 89.16858017 17.40642105 89.17617798 18.95956421 C89.19080496 22.32331008 89.19760256 25.68700878 89.203125 29.05078125 C89.20887605 31.38624574 89.21463379 33.72171022 89.22039795 36.05717468 C89.23090949 40.95730815 89.23675115 45.8574252 89.24023438 50.75756836 C89.24571908 57.03572329 89.26974615 63.31366133 89.29820633 69.59174824 C89.31683228 74.41731906 89.3220383 79.24283765 89.32357025 84.06844139 C89.32659745 86.3828875 89.33462819 88.69733268 89.34775543 91.01174355 C89.36481445 94.25059115 89.36293579 97.48890887 89.35644531 100.7277832 C89.3656601 101.68332596 89.37487488 102.63886871 89.3843689 103.62336731 C89.35161736 108.84205554 88.92110612 112.48356949 86 117 C83.40912377 119.20704271 81.20461259 119.10836519 77.9375 118.875 C75.31618637 118.62343439 74.29906623 118.29539402 72.40812683 116.42767334 C70.50393759 113.14476632 70.56011774 110.16977739 70.56762695 106.47753906 C70.55233948 105.3501255 70.55233948 105.3501255 70.53674316 104.19993591 C70.50660876 101.72175649 70.49734677 99.24396358 70.48828125 96.765625 C70.47143485 95.04496984 70.45328466 93.32432699 70.43388367 91.60369873 C70.38637312 87.07952725 70.35657064 82.55540567 70.33044434 78.03106689 C70.30064411 73.41253807 70.25411194 68.79418124 70.20898438 64.17578125 C70.1229393 55.11727744 70.05559938 46.05873825 70 37 C69.64023071 37.52876236 69.28046143 38.05752472 68.90979004 38.60231018 C67.243394 41.0496668 65.57483262 43.49553995 63.90625 45.94140625 C63.34067383 46.77273071 62.77509766 47.60405518 62.19238281 48.46057129 C46.30233117 71.73542258 46.30233117 71.73542258 40 76 C36.71935864 76.47842687 34.73682819 76.31418055 31.69140625 75.015625 C27.7905259 72.09421098 25.56743731 68.37224333 22.9375 64.3125 C17.00094714 55.24982462 10.54669295 46.62622282 4 38 C3.99635437 38.94325134 3.99270874 39.88650269 3.98895264 40.8583374 C3.95201786 49.7458486 3.89426209 58.63301282 3.81609726 67.52025986 C3.77658102 72.08936758 3.74441301 76.65828139 3.72900391 81.22753906 C3.71386445 85.63683555 3.67946771 90.04559908 3.63169098 94.45465851 C3.61684907 96.13712177 3.60895738 97.81966112 3.60811615 99.50218964 C3.60575307 101.85848367 3.57872959 104.21329685 3.54589844 106.56933594 C3.5509288 107.26561096 3.55595917 107.96188599 3.56114197 108.67926025 C3.48849762 112.04692926 3.21410008 113.7306346 1.09088135 116.4019165 C-2.40767446 119.07590099 -4.59233758 119.43212377 -9 119 C-12.33761045 116.84909549 -13.73470933 115.79587201 -15 112 C-15.0947495 110.53923699 -15.13485789 109.0745703 -15.14044189 107.61074829 C-15.14615204 106.71353561 -15.15186218 105.81632294 -15.15774536 104.891922 C-15.15886322 103.91003403 -15.15998108 102.92814606 -15.16113281 101.91650391 C-15.16609772 100.88046524 -15.17106262 99.84442657 -15.17617798 98.7769928 C-15.19080468 95.34350932 -15.19760214 91.91007203 -15.203125 88.4765625 C-15.20887561 86.09386188 -15.21463335 83.71116128 -15.22039795 81.32846069 C-15.23090909 76.3299742 -15.23675116 71.3315038 -15.24023438 66.33300781 C-15.24572223 59.92472004 -15.2697562 53.51664442 -15.29820633 47.10842323 C-15.31681864 42.1859576 -15.32203754 37.26354323 -15.32357025 32.34104538 C-15.3266 29.97832452 -15.33463929 27.61560464 -15.34775543 25.25291824 C-15.3647877 21.949209 -15.36294246 18.64602035 -15.35644531 15.34228516 C-15.3656601 14.36444565 -15.37487488 13.38660614 -15.3843689 12.37913513 C-15.35401516 7.45828917 -15.29035097 3.95133737 -12 0 C-7.90392223 -2.61693858 -4.11818026 -2.45540036 0 0 Z " fill="#000000" transform="translate(57,112)"/>
<path d="M0 0 C6.11068939 6.56768539 11.20911419 14.05477171 16.484375 21.29296875 C20.35846508 26.5949832 24.33391886 31.81551548 28.328125 37.02734375 C34.09026881 44.55549662 39.77235947 52.13610079 45.37304688 59.78515625 C48.56834878 64.14850532 51.79162292 68.48970819 55.03930664 72.81420898 C55.45331978 73.36584465 55.86733292 73.91748032 56.29389191 74.48583221 C57.30511604 75.83314302 58.3165943 77.18026309 59.328125 78.52734375 C59.33692436 77.13458977 59.33692436 77.13458977 59.34590149 75.71369934 C59.40383011 66.95898107 59.47590792 58.20451787 59.56383991 49.45004749 C59.60854763 44.94938259 59.64780284 40.4488083 59.67456055 35.94799805 C59.70058958 31.60360404 59.74098903 27.25955863 59.79131126 22.91538048 C59.80798271 21.25886054 59.81949527 19.60228031 59.82573891 17.94568825 C59.83537717 15.62333347 59.86343177 13.30187102 59.89575195 10.97973633 C59.89359932 9.95474281 59.89359932 9.95474281 59.8914032 8.90904236 C59.97527649 4.64160956 60.66234698 1.88992427 63.328125 -1.47265625 C66.96704746 -3.02256767 69.20693079 -3.7529548 73.078125 -2.78515625 C75.30740987 -1.48474008 76.70660974 -0.46755875 78.328125 1.52734375 C78.70844173 3.61884212 78.70844173 3.61884212 78.71580505 6.07518005 C78.72570969 7.00749451 78.73561432 7.93980896 78.74581909 8.90037537 C78.74131744 9.92123734 78.7368158 10.9420993 78.73217773 11.99389648 C78.73904099 13.07055573 78.74590424 14.14721497 78.75297546 15.25650024 C78.77131591 18.82477916 78.76739549 22.39262144 78.76171875 25.9609375 C78.7662771 28.43571619 78.77158163 30.9104936 78.77760315 33.38526917 C78.78654855 38.57631568 78.78409483 43.76720847 78.77416992 48.95825195 C78.76267934 55.6179082 78.78288598 62.27682972 78.81208706 68.93644619 C78.83041385 74.04848107 78.83016358 79.1603881 78.82444954 84.27244759 C78.82429589 86.72809658 78.83037608 89.183754 78.84274101 91.63937187 C78.85758194 95.07038716 78.84702367 98.50041264 78.82983398 101.93139648 C78.83950195 102.95023422 78.84916992 103.96907196 78.85913086 105.01878357 C78.78708676 111.86950255 78.78708676 111.86950255 76.51161194 115.1309967 C73.39757486 117.12243361 71.00759883 117.46279158 67.328125 117.52734375 C63.58360791 115.6844733 61.31368073 113.63138876 58.83203125 110.30859375 C58.19845703 109.46876953 57.56488281 108.62894531 56.91210938 107.76367188 C56.24501953 106.86068359 55.57792969 105.95769531 54.890625 105.02734375 C54.18615234 104.08826172 53.48167969 103.14917969 52.75585938 102.18164062 C50.60250832 99.30470171 48.46273847 96.41820597 46.328125 93.52734375 C45.41135986 92.28597656 45.41135986 92.28597656 44.47607422 91.01953125 C42.18696876 87.91531216 39.90071279 84.80906125 37.62158203 81.69750977 C32.65611604 74.93018468 27.57632363 68.25346088 22.44726562 61.609375 C15.88012113 53.05746256 9.61598166 44.28529177 3.328125 35.52734375 C3.32225876 36.44109772 3.31639252 37.35485168 3.31034851 38.29629517 C3.25238387 46.91825856 3.1802854 55.53996394 3.09241009 64.16167641 C3.04773097 68.59393105 3.00846948 73.0260943 2.98168945 77.45849609 C2.95563185 81.73805817 2.91521223 86.01726808 2.86493874 90.29661179 C2.8482866 91.92718492 2.83676202 93.55781894 2.83051109 95.18846512 C2.82085177 97.47709092 2.7927722 99.76481914 2.76049805 102.05322266 C2.74939499 103.35450104 2.73829193 104.65577942 2.72685242 105.99649048 C2.23163407 110.38180041 1.07533828 114.03897688 -2.359375 116.96484375 C-5.83745563 117.81086336 -9.28470036 117.73754578 -12.671875 116.52734375 C-15.30701654 113.63432024 -16.04789175 111.74560241 -16.05955505 107.85925293 C-16.06945969 106.92556381 -16.07936432 105.99187469 -16.08956909 105.02989197 C-16.08506744 104.01262527 -16.0805658 102.99535858 -16.07592773 101.94726562 C-16.08279099 100.87046036 -16.08965424 99.79365509 -16.09672546 98.68421936 C-16.11504155 95.12137707 -16.1111493 91.55897306 -16.10546875 87.99609375 C-16.11002791 85.5227443 -16.11533268 83.04939613 -16.12135315 80.5760498 C-16.13029349 75.39097956 -16.12785013 70.20606327 -16.11791992 65.02099609 C-16.10642344 58.36921556 -16.12664758 51.71816992 -16.15583706 45.06642914 C-16.17416238 39.95868544 -16.17391398 34.85106971 -16.16819954 29.74330139 C-16.16804591 27.29044348 -16.1741247 24.83757711 -16.18649101 22.38475037 C-16.20133108 18.95863326 -16.19077473 15.53350747 -16.17358398 12.10742188 C-16.18325195 11.09015518 -16.19291992 10.07288849 -16.20288086 9.02479553 C-16.13049116 2.15185169 -16.13049116 2.15185169 -13.75770569 -1.07922363 C-8.84371969 -4.36199649 -4.59537801 -4.04779792 0 0 Z " fill="#000000" transform="translate(271.671875,113.47265625)"/>
<path d="M0 0 C2.4363715 2.37283628 2.96845445 3.73355937 3.37181091 7.14039612 C3.37036827 8.99591347 3.37036827 8.99591347 3.36889648 10.88891602 C3.37266296 11.57408798 3.37642944 12.25925995 3.38031006 12.9651947 C3.38673492 14.4503855 3.3864196 15.93561743 3.38012505 17.42080879 C3.37098897 19.78097392 3.38126984 22.1403487 3.39674377 24.50047302 C3.43675296 31.20969416 3.43805992 37.9188532 3.43579102 44.62817383 C3.43573955 48.73729525 3.45509432 52.84599455 3.48512459 56.95499992 C3.49584671 59.26322355 3.48387674 61.5706041 3.47129822 63.87879944 C3.49689858 74.36746023 4.63637276 84.51972211 12.15625 92.5 C19.05853983 98.11542223 27.1622804 100.8199946 36 100 C43.88067328 98.52393739 50.7657361 95.51809385 55.53515625 88.85546875 C59.47775303 82.10822586 61.24734892 75.60975915 61.25537109 67.76708984 C61.25899155 67.08159561 61.262612 66.39610138 61.26634216 65.68983459 C61.27318946 64.21450497 61.27575044 62.73915028 61.27439499 61.26380539 C61.27342304 58.92615593 61.28644796 56.58895783 61.30337524 54.25137329 C61.34946167 47.6099995 61.37426689 40.96867691 61.38085938 34.32714844 C61.38587628 30.2534649 61.41012502 26.18026029 61.44618607 22.10673904 C61.45597071 20.55905661 61.45832327 19.01130823 61.45301437 17.46360397 C61.44593581 15.29992162 61.46323617 13.13766837 61.48583984 10.97412109 C61.48868988 9.74503021 61.49153992 8.51593933 61.49447632 7.24960327 C62.09592753 3.38335941 63.24268264 1.73043811 66 -1 C69.77081459 -2.31158768 71.48941725 -2.18655908 75.25 -0.8125 C78.20486279 1.1350232 78.82217148 1.77249004 80 5 C80.26069641 8.13366699 80.26069641 8.13366699 80.2746582 11.87304688 C80.27976913 12.55661255 80.28488007 13.24017822 80.29014587 13.94445801 C80.30403336 16.20264478 80.30308422 18.4605256 80.30078125 20.71875 C80.30467179 22.29854443 80.3090072 23.87833783 80.31376648 25.45812988 C80.32122919 28.77355328 80.32093937 32.08887024 80.31567383 35.40429688 C80.30991274 39.62262669 80.32672775 43.84051262 80.3500185 48.05876923 C80.36486922 51.32591235 80.3656117 54.59295177 80.36250877 57.86012268 C80.36301743 59.41322195 80.36816821 60.96632775 80.37832069 62.51939392 C80.46881065 78.31333146 78.19798479 93.1533424 67.00390625 105.12109375 C56.19137679 115.25915744 43.80602472 119.37786369 29.15234375 119.21484375 C16.33589742 118.34135608 4.64458302 112.39977894 -4 103 C-13.97731265 90.36075611 -15.62699872 76.99563714 -15.56640625 61.5 C-15.57165418 59.84903618 -15.57793489 58.19807536 -15.58518982 56.54711914 C-15.59551682 53.1147635 -15.59113685 49.6828246 -15.57641602 46.25048828 C-15.55911378 41.85766478 -15.58290249 37.46613545 -15.61790562 33.07345581 C-15.63986304 29.67616153 -15.63844438 26.27917899 -15.6301403 22.88183594 C-15.62932228 21.2615414 -15.63615727 19.64122366 -15.65091133 18.02099609 C-15.66835742 15.76187835 -15.65382599 13.50511704 -15.63110352 11.24609375 C-15.63014175 9.96404053 -15.62917999 8.6819873 -15.62818909 7.36108398 C-14.83516897 3.11808251 -13.33347687 1.65567138 -10 -1 C-5.9761071 -2.34129763 -3.92371185 -1.47139194 0 0 Z " fill="#000000" transform="translate(390,112)"/>
<path d="M0 0 C0.97751724 -0.00428513 1.95503448 -0.00857025 2.96217346 -0.01298523 C5.02563707 -0.01871779 7.08912089 -0.01923672 9.15258789 -0.01489258 C12.30194719 -0.01173325 15.45036615 -0.03520333 18.59960938 -0.06054688 C20.60807174 -0.0628201 22.61653661 -0.06352325 24.625 -0.0625 C25.56266708 -0.07170975 26.50033417 -0.08091949 27.46641541 -0.09040833 C32.69484138 -0.05358234 36.35432271 0.37655883 40.87890625 3.30078125 C43.08594896 5.89165748 42.98727144 8.09616866 42.75390625 11.36328125 C42.50700029 13.93604139 42.15999127 15.00055424 40.38037109 16.90136719 C36.74278145 18.93637244 33.23031628 18.67120257 29.17578125 18.59375 C28.33799133 18.58950516 27.50020142 18.58526031 26.63702393 18.58088684 C23.96732123 18.56412533 21.29837988 18.52647836 18.62890625 18.48828125 C16.81641717 18.47323112 15.00391623 18.45954328 13.19140625 18.44726562 C8.75337863 18.41678467 4.31699226 18.35806056 -0.12109375 18.30078125 C-0.12109375 29.52078125 -0.12109375 40.74078125 -0.12109375 52.30078125 C2.575625 52.254375 5.27234375 52.20796875 8.05078125 52.16015625 C10.66534544 52.12895287 13.27988882 52.10466959 15.89453125 52.08105469 C17.71038105 52.06095064 19.5261662 52.0336629 21.34179688 51.99902344 C23.9532873 51.95045086 26.56392123 51.92780098 29.17578125 51.91015625 C29.98633972 51.88951111 30.79689819 51.86886597 31.63201904 51.84759521 C35.23474363 51.84616393 37.40883463 51.95852478 40.36425781 54.11035156 C42.50691652 57.20898695 42.81321313 59.55627327 42.87890625 63.30078125 C41.70678768 66.07685154 40.74854802 67.68830878 38.28222656 69.42529297 C34.76230998 70.70753808 31.3085241 70.54583796 27.61328125 70.49609375 C26.81988342 70.49326385 26.0264856 70.49043396 25.20904541 70.48751831 C22.68217708 70.47634904 20.15566693 70.45125069 17.62890625 70.42578125 C15.91276555 70.41574723 14.19661927 70.40662212 12.48046875 70.3984375 C8.27969986 70.3781243 4.07970264 70.33897031 -0.12109375 70.30078125 C-0.12109375 81.19078125 -0.12109375 92.08078125 -0.12109375 103.30078125 C2.56402344 103.23117188 5.24914062 103.1615625 8.015625 103.08984375 C10.6235733 103.0430174 13.23147433 103.00660544 15.83959961 102.97119141 C17.64873297 102.94106348 19.45772079 102.90015162 21.26635742 102.84814453 C23.87064522 102.77514718 26.47299902 102.74128727 29.078125 102.71484375 C29.88352219 102.68387604 30.68891937 102.65290833 31.51872253 102.6210022 C36.99716294 102.61773718 36.99716294 102.61773718 39.51577759 104.56878662 C41.72541176 107.09781581 42.83344841 109.05328856 43.44140625 112.36328125 C42.74911264 115.97859233 41.42299592 117.68186541 38.87890625 120.30078125 C36.47246162 121.50400356 34.92131408 121.44668552 32.2331543 121.4777832 C31.26842697 121.49061844 30.30369965 121.50345367 29.30973816 121.51667786 C28.26393082 121.52406479 27.21812347 121.53145172 26.140625 121.5390625 C25.06770706 121.54713425 23.99478912 121.55520599 22.88935852 121.56352234 C20.61546448 121.57736985 18.34154958 121.58808901 16.06762695 121.59594727 C12.59090763 121.61315995 9.11513905 121.65704113 5.63867188 121.70117188 C3.43099659 121.7112986 1.2233132 121.71981476 -0.984375 121.7265625 C-2.02410965 121.74407059 -3.0638443 121.76157867 -4.13508606 121.77961731 C-11.34211222 121.75797392 -11.34211222 121.75797392 -15.25463867 119.46166992 C-17.93410869 116.35951307 -18.24645761 113.86417243 -18.26153564 109.91152954 C-18.26724579 109.01431686 -18.27295593 108.11710419 -18.27883911 107.19270325 C-18.27995697 106.21081528 -18.28107483 105.22892731 -18.28222656 104.21728516 C-18.28719147 103.18124649 -18.29215637 102.14520782 -18.29727173 101.07777405 C-18.31189843 97.64429057 -18.31869589 94.21085328 -18.32421875 90.77734375 C-18.32996936 88.39464313 -18.3357271 86.01194253 -18.3414917 83.62924194 C-18.35200284 78.63075545 -18.35784491 73.63228505 -18.36132812 68.63378906 C-18.36681598 62.22550129 -18.39084995 55.81742567 -18.41930008 49.40920448 C-18.43791239 44.48673885 -18.44313129 39.56432448 -18.444664 34.64182663 C-18.44769375 32.27910577 -18.45573304 29.91638589 -18.46884918 27.55369949 C-18.48588145 24.24999025 -18.48403621 20.9468016 -18.47753906 17.64306641 C-18.48675385 16.6652269 -18.49596863 15.68738739 -18.50546265 14.67991638 C-18.47509729 9.75718702 -18.40694303 6.25827847 -15.12109375 2.30078125 C-10.58815039 -0.55297506 -5.18184865 -0.00502588 0 0 Z " fill="#000000" transform="translate(188.12109375,109.69921875)"/>
</svg>
